<svg version="1.1" id="Layer_5" xmlns="http://www.w3.org/2000/svg" xmlns:xlink="http://www.w3.org/1999/xlink" x="0px" y="0px" viewBox="0 0 250 237.16783" style="enable-background:new 0 0 250 237.16783;" xml:space="preserve"><defs><style> .svg-style-0 {  fill: rgb(0, 0, 0); }</style></defs><path id="path-01" d="M244.7966,100.38578l-43.58101-40.04562l0.67693-2.17384c1.28258-4.10587,0.88562-8.46424-1.11926-12.27303
	c-1.99736-3.79622-5.34888-6.58121-9.43152-7.83991L169.5784,31.2799l-17.17744-15.76831
	c-3.55127-3.25331-8.29404-4.71403-13.05186-4.05688h-33.41275L71.53026,0.73811c-4.09206-1.27818-8.43347-0.8875-12.22718,1.10357
	c-3.80502,1.99609-6.6057,5.36144-7.88953,9.48804l-0.03831,0.12499H16.05354C7.20114,11.45471,0,18.65585,0,27.50825V175.3241
	c0,8.8524,7.20114,16.05542,16.05354,16.05542H41.4206c1.07193,14.77356,13.42488,26.46803,28.46593,26.46803
	c8.32253,0,16.19086-3.65089,21.60341-9.88429l31.68626,25.04907c2.97404,2.6958,6.769,4.1555,10.76748,4.1555
	c0.23868,0,0.47861-0.00504,0.7198-0.01508c4.29367-0.18843,8.25446-2.0363,11.14621-5.1994l99.96925-108.8518
	C251.771,116.58253,251.33008,106.39227,244.7966,100.38578z M195.65425,48.5872c1.28258,2.43765,1.53633,5.2264,0.71478,7.85624
	l-12.81201,41.14353l-25.96422-8.07773v-55.9013l32.03674,9.97144C192.23866,44.38398,194.37796,46.16212,195.65425,48.5872z
	 M151.80676,129.13129H5.78478V76.38743h146.02199V129.13129z M157.5928,175.3241v-18.45815l6.84093,2.13223l-12.00766,38.56056
	c-0.80522,2.62167-2.58525,4.76978-5.01222,6.04984c-2.39807,1.26373-5.1416,1.53004-7.73312,0.75121l-31.53191-12.98027h33.38982
	C150.39104,191.37952,157.5928,184.1765,157.5928,175.3241z M179.86113,128.9157l28.59792,26.269l-35.68002,38.8494
	l-10.26241-9.4198L179.86113,128.9157z M166.15346,153.47556l-8.56065-2.66823V95.56866l24.24402,7.5425L166.15346,153.47556z
	 M61.99071,6.96507c2.4232-1.27064,5.19813-1.52188,7.81604-0.7041l16.67497,5.19374H57.58971
	C58.54929,9.54137,60.06473,7.97552,61.99071,6.96507z M16.05354,17.23949h125.48509c5.66167,0,10.26813,4.60647,10.26813,10.26877
	v43.0944H5.78478v-43.0944C5.78478,21.84595,10.39124,17.23949,16.05354,17.23949z M5.78478,175.3241v-40.40677h146.02199v40.40677
	c0,5.66292-4.60646,10.26939-10.26813,10.26939H56.93555c1.61421-5.63615,6.803-9.77698,12.95098-9.77698
	c0.73173,0,1.36509,0.0475,1.92464,0.12578c1.82941,1.70953,4.28362,2.75853,6.98492,2.75853
	c5.6535,0,10.23657-4.58307,10.23657-10.2365v-0.00008c0-5.65343-4.58307-10.2365-10.23657-10.2365
	c-2.60755,0-4.97814,0.98532-6.78565,2.59058c-0.65589-0.04419-1.33808-0.07364-2.12391-0.07364
	c-14.48738,0-26.48028,10.84984-28.30215,24.8488H16.05354C10.39124,185.59349,5.78478,180.98701,5.78478,175.3241z
	 M70.51203,191.37952l8.87267,7.01421c-2.37594,2.7184-5.59486,4.20566-9.63699,4.38577
	c-3.31949,0.15701-6.53849-1.06903-9.05025-3.46333c-2.21875-2.11504-3.65066-4.93135-4.11357-7.93665H70.51203z
	 M69.88653,212.06151c-12.55253,0-22.7654-10.21286-22.7654-22.76602c0-12.55315,10.21286-22.76476,22.7654-22.76476
	c0.90823,0,1.65315,0.0314,2.35159,0.10175c0.18278,0.01759,0.36555,0.03769,0.5477,0.0603l-0.43275,3.47839
	c-0.77068-0.09421-1.58406-0.14069-2.46654-0.14069c-10.62302,0-19.26501,8.64262-19.26501,19.265
	c0,5.34386,2.21781,10.5219,6.08438,14.20757c3.66809,3.496,8.40897,5.2999,13.30938,5.05493
	c5.75117-0.25516,10.48758-2.53217,13.90812-6.57634l3.02782,2.3936C82.63667,209.22887,76.43523,212.06151,69.88653,212.06151z
	 M141.54366,228.04408c-1.85162,2.02625-4.38538,3.20833-7.13268,3.32767c-2.76112,0.13063-5.38155-0.83664-7.40401-2.6958
	l-47.16895-37.29643h13.11507l44.64862,18.38065l0.23868,0.08669c1.58029,0.49368,3.19827,0.73863,4.80746,0.73863
	c2.57143,0,5.12151-0.62558,7.46304-1.85916c3.79874-2.00238,6.58498-5.3652,7.84244-9.4579l2.66179-8.54785l8.25124,7.57376
	L141.54366,228.04408z M241.5192,119.18787l-29.14632,31.73533l-30.60931-28.11662l17.54984-56.35785l41.56889,38.19617
	C245.06668,108.49263,245.3531,115.01605,241.5192,119.18787z" class="svg-style-0"/></svg>