<?xml version="1.0" encoding="UTF-8"?>
<svg id="Layer_1" data-name="Layer 1" xmlns="http://www.w3.org/2000/svg" version="1.1" viewBox="0 0 224.07716 250">
  <defs>
    <style>
      .cls-1 {
        fill: #000;
        stroke-width: 0px;
      }
    </style>
  </defs>
  <path id="path-01" class="cls-1" d="M38.33624,107.70643H2.90766c-1.60622,0-2.90766,1.30239-2.90766,2.90766v64.66513c0,1.60527,1.30144,2.90766,2.90766,2.90766h35.42858c1.60622,0,2.90766-1.30239,2.90766-2.90766v-64.66513c0-1.60527-1.30144-2.90766-2.90766-2.90766ZM35.42858,172.37156H5.81532v-58.84981h29.61326v58.84981ZM73.60391,172.37156c.81139,1.99062,1.74488,3.92953,2.78556,5.81532h-15.71385c-1.60622,0-2.90766-1.30239-2.90766-2.90766V56.76182c0-1.60527,1.30144-2.90766,2.90766-2.90766h35.42858c1.60622,0,2.90766,1.30239,2.90766,2.90766v45.19377c-2.00659,1.07215-3.94266,2.28498-5.81532,3.60571v-45.89182h-29.61326v112.70208h10.02063ZM121.35218,95.57474c-1.96092.13606-3.90054.3728-5.81532.70798V2.90766c0-1.60527,1.30144-2.90766,2.90766-2.90766h35.42858c1.60622,0,2.90766,1.30239,2.90766,2.90766v102.2018c-1.87218-1.28121-3.81346-2.44032-5.81532-3.47651V5.81532h-29.61326v89.75942ZM181.14375,188.52838c-1.1358-1.1358-2.97581-1.1358-4.11161,0l-.57405.57417-5.5839-5.58354-4.18023-4.17976c13.22171-19.45869,11.22601-46.23871-6.00911-63.47312-19.50555-19.50555-51.2456-19.50555-70.75115,0-19.50649,19.50555-19.50649,51.2456,0,70.75115,9.75277,9.75277,22.56417,14.62916,35.37557,14.62916,9.83299,0,19.66006-2.88423,28.11045-8.62927l4.17952,4.18,5.58177,5.58224-.57547.57559c-1.1358,1.1358-1.1358,2.97581,0,4.11161l42.08155,42.08155c.5679.5679,1.31185.85185,2.05581.85185s1.4879-.28395,2.05581-.85185l14.42661-14.42661c1.1358-1.1358,1.1358-2.97581,0-4.11161l-42.08155-42.08155ZM96.10419,178.18688c1.60622,0,2.90766-1.30239,2.90766-2.90766v-59.51615c5.02877-3.73064,10.65881-6.26278,16.52501-7.58398v67.10013c0,1.60527,1.30144,2.90766,2.90766,2.90766h35.42858c1.60622,0,2.90766-1.30239,2.90766-2.90766v-55.07184c17.0179,17.2576,16.95732,45.13249-.20752,62.29828-17.23962,17.23772-45.28831,17.23772-62.52792,0-1.36817-1.36829-2.58798-2.82519-3.73893-4.31878h5.79781ZM86.49765,172.37156c-8.92364-16.41214-6.6809-37.28964,6.69888-51.45442v51.45442h-6.69888ZM121.35218,107.23708c1.31635-.11725,2.63649-.18859,3.95709-.18859,9.01474,0,18.00557,2.77941,25.65616,8.24357v57.07949h-29.61326v-65.13447ZM162.18671,193.16151l-3.33217-3.33264,5.05338-5.05244,3.33169,3.33122,5.10639,5.10591-5.05338,5.05433-5.10591-5.10639ZM206.74289,242.98073l-37.96994-37.96994,10.315-10.315,37.96994,37.96994-10.315,10.315Z"/>
</svg>