<?xml version="1.0" encoding="UTF-8"?>
<svg id="Layer_1" data-name="Layer 1" xmlns="http://www.w3.org/2000/svg" version="1.1" viewBox="0 0 250 221.69727">
  <defs>
    <style>
      .cls-1 {
        fill: #000;
        stroke-width: 0px;
      }
    </style>
  </defs>
  <path id="path-01" class="cls-1" d="M247.01237,0H2.98763C1.33724,0,0,1.33821,0,2.98763v21.66226c0,1.64942,1.33724,2.98763,2.98763,2.98763h2.97985v159.26437c0,1.64942,1.33724,2.98763,2.98763,2.98763h113.05726v10.3682c-4.57821,1.30417-7.94464,5.51525-7.94464,10.5063,0,6.02778,4.9045,10.93325,10.93227,10.93325s10.93227-4.90547,10.93227-10.93325c0-4.99105-3.36643-9.20213-7.94464-10.5063v-10.3682h113.05726c1.65039,0,2.98763-1.33821,2.98763-2.98763V27.63752h2.97985c1.65039,0,2.98763-1.33821,2.98763-2.98763V2.98763c0-1.64942-1.33724-2.98763-2.98763-2.98763ZM244.02474,21.66226H5.97526V5.97526h238.04948v15.687ZM125,215.72201c-2.73283,0-4.95701-2.22322-4.95701-4.95799,0-2.73283,2.22419-4.95604,4.95701-4.95604s4.95701,2.22322,4.95701,4.95604c0,2.73477-2.22419,4.95799-4.95701,4.95799ZM238.05726,183.91426H11.94274V27.63752h226.11453v156.27674ZM58.782,147.4928h-14.06578c-1.65039,0-2.98763,1.33821-2.98763,2.98763v13.78666c0,1.64942,1.33724,2.98763,2.98763,2.98763h14.06578c1.65039,0,2.98763-1.33821,2.98763-2.98763v-13.78666c0-1.64942-1.33724-2.98763-2.98763-2.98763ZM55.79437,161.27947h-8.09052v-7.81141h8.09052v7.81141ZM88.08255,132.80557h-14.06578c-1.65039,0-2.98763,1.33821-2.98763,2.98763v28.4739c0,1.64942,1.33724,2.98763,2.98763,2.98763h14.06578c1.65039,0,2.98763-1.33821,2.98763-2.98763v-28.4739c0-1.64942-1.33724-2.98763-2.98763-2.98763ZM85.09492,161.27947h-8.09052v-22.49864h8.09052v22.49864ZM100.32969,121.98708v42.28001c0,1.64942,1.33724,2.98763,2.98763,2.98763h14.06578c1.65039,0,2.98763-1.33821,2.98763-2.98763v-42.28001c0-1.64942-1.33724-2.98763-2.98763-2.98763h-14.06578c-1.65039,0-2.98763,1.33821-2.98763,2.98763ZM106.30495,124.97471h8.09052v36.30475h-8.09052v-36.30475ZM132.6169,167.25473h14.06675c1.65039,0,2.98763-1.33821,2.98763-2.98763v-64.60554c0-1.64942-1.33724-2.98763-2.98763-2.98763h-14.06675c-1.65039,0-2.98763,1.33821-2.98763,2.98763v64.60554c0,1.64942,1.33724,2.98763,2.98763,2.98763ZM135.60453,102.64919h8.0915v58.63028h-8.0915v-58.63028ZM158.92982,103.57504v60.69206c0,1.64942,1.33724,2.98763,2.98763,2.98763h14.06675c1.65039,0,2.98763-1.33821,2.98763-2.98763v-60.69206c0-1.64942-1.33724-2.98763-2.98763-2.98763h-14.06675c-1.65039,0-2.98763,1.33821-2.98763,2.98763ZM164.90508,106.56267h8.0915v54.7168h-8.0915v-54.7168ZM191.218,167.25473h14.06578c1.65039,0,2.98763-1.33821,2.98763-2.98763V55.15638c0-1.64942-1.33724-2.98763-2.98763-2.98763h-14.06578c-1.65039,0-2.98763,1.33821-2.98763,2.98763v109.11071c0,1.64942,1.33724,2.98763,2.98763,2.98763ZM194.20563,58.14401h8.09052v103.13545h-8.09052V58.14401ZM71.19544,115.54695c18.67852,0,34.02513-14.42416,35.55152-32.71415h2.80528c1.65039,0,2.98763-1.33821,2.98763-2.98763,0-22.79818-18.54723-41.34443-41.34443-41.34443-1.65039,0-2.98763,1.33821-2.98763,2.98763v2.80625c-18.28999,1.52639-32.71415,16.87301-32.71415,35.55055,0,19.68607,16.01572,35.70178,35.70178,35.70178ZM74.18307,44.60048c17.12538,1.43935,30.81771,15.13071,32.25609,32.25706h-32.25609v-32.25706ZM68.20781,50.26842v29.57675c0,1.64942,1.33724,2.98763,2.98763,2.98763h29.5787c-1.50354,14.99261-14.19513,26.73889-29.5787,26.73889-16.39111,0-29.72652-13.33541-29.72652-29.72652,0-15.38357,11.74531-28.07321,26.73889-29.57675ZM134.15448,48.91854c0-1.64942,1.33724-2.98763,2.98763-2.98763h30.08539c1.65039,0,2.98763,1.33821,2.98763,2.98763s-1.33724,2.98763-2.98763,2.98763h-30.08539c-1.65039,0-2.98763-1.33821-2.98763-2.98763ZM134.15448,62.31619c0-1.64942,1.33724-2.98763,2.98763-2.98763h30.08539c1.65039,0,2.98763,1.33821,2.98763,2.98763s-1.33724,2.98763-2.98763,2.98763h-30.08539c-1.65039,0-2.98763-1.33821-2.98763-2.98763ZM134.15448,75.7119c0-1.64942,1.33724-2.98763,2.98763-2.98763h30.08539c1.65039,0,2.98763,1.33821,2.98763,2.98763s-1.33724,2.98763-2.98763,2.98763h-30.08539c-1.65039,0-2.98763-1.33821-2.98763-2.98763Z"/>
</svg>